<svg width="48" height="30.000000000000004" xmlns="http://www.w3.org/2000/svg">

 <g>
  <title>background</title>
  <rect fill="#e0e0e0" id="canvas_background" height="32" width="50" y="-1" x="-1"/>
 </g>
 <g>
  <title>Layer 1</title>
  <path id="svg_3" fill="#50a7a0" d="m9.567909,7.592251c-0.276,0 -0.5,-0.224 -0.5,-0.5s0.224,-0.5 0.5,-0.5c14.384,0 23.066,0 25.584,-3.777c0.123,-0.184 0.351,-0.266 0.561,-0.201c0.21,0.063 0.355,0.257 0.355,0.478l0,2.5c0,0.276 -0.224,0.5 -0.5,0.5s-0.5,-0.224 -0.5,-0.5l0,-1.174c-3.559,3.174 -12.118,3.174 -25.5,3.174z"/>
  <path id="svg_7" fill="#50a7a0" d="m22.046909,9.650251c-1.78,0 -3.686,-0.014 -5.713,-0.027c-2.153,-0.015 -4.415,-0.031 -6.766,-0.031c-0.276,0 -0.5,-0.224 -0.5,-0.5s0.224,-0.5 0.5,-0.5c2.354,0 4.618,0.016 6.772,0.03c10.592,0.069 18.957,0.13 20.865,-1.875c0.142,-0.148 0.359,-0.195 0.548,-0.119c0.19,0.075 0.315,0.26 0.315,0.464l0,2c0,0.276 -0.224,0.5 -0.5,0.5s-0.5,-0.224 -0.5,-0.5l0,-1.008c-2.408,1.338 -7.611,1.566 -15.021,1.566z"/>
  <path id="svg_13" fill="#50a7a0" d="m24.067909,22.592251c1.402,0 2.5,-1.098 2.5,-2.5c0,-1.135 -0.771,-1.962 -2.291,-2.458l-0.113,-0.037c-0.57,-0.186 -1.096,-0.436 -1.096,-1.005c0,-0.589 0.411,-1 1,-1c0.704,0 1.174,0.378 1.178,0.382c0.213,0.178 0.527,0.15 0.705,-0.06c0.178,-0.212 0.15,-0.526 -0.061,-0.704c-0.03,-0.025 -0.746,-0.618 -1.822,-0.618c-1.141,0 -2,0.86 -2,2c0,1.374 1.344,1.813 1.785,1.955l0.113,0.037c1.078,0.352 1.602,0.846 1.602,1.508c0,0.855 -0.645,1.5 -1.5,1.5c-0.928,0 -1.459,-0.612 -1.6,-0.8c-0.166,-0.222 -0.48,-0.265 -0.7,-0.101c-0.222,0.166 -0.267,0.479 -0.101,0.7c0.212,0.283 1.009,1.201 2.401,1.201z"/>
  <path id="svg_18" fill="#50a7a0" d="m24.067909,23.592251c0.276,0 0.5,-0.224 0.5,-0.5l0,-0.5c0,-0.276 -0.224,-0.5 -0.5,-0.5s-0.5,0.224 -0.5,0.5l0,0.5c0,0.276 0.224,0.5 0.5,0.5z"/>
  <path id="svg_23" fill="#50a7a0" d="m24.067909,15.092251c0.276,0 0.5,-0.224 0.5,-0.5l0,-0.5c0,-0.276 -0.224,-0.5 -0.5,-0.5s-0.5,0.224 -0.5,0.5l0,0.5c0,0.276 0.224,0.5 0.5,0.5z"/>
  <path id="svg_27" fill="#50a7a0" d="m9.567909,10.592251c-0.276,0 -0.5,0.224 -0.5,0.5s0.224,0.5 0.5,0.5l28.5,0l0,14l-28.5,0c-0.276,0 -0.5,0.224 -0.5,0.5l0,0c0,0.276 0.224,0.5 0.5,0.5l29,0c0.276,0 0.5,-0.224 0.5,-0.5l0,-15c0,-0.276 -0.224,-0.5 -0.5,-0.5l-29,0z"/>
  <path id="svg_30" fill="#50a7a0" d="m9.067909,13.091251l0,13.001c0,0.276 0.224,0.5 0.5,0.5l0,0c0.276,0 0.5,-0.224 0.5,-0.5l0,-13.001c0,-0.276 -0.224,-0.5 -0.5,-0.5s-0.5,0.224 -0.5,0.5z"/>
  <path id="svg_34" fill="#50a7a0" d="m20.567909,24.592251l-7.051,0c-0.244,0 -0.452,-0.177 -0.493,-0.417c-0.148,-0.886 -0.771,-1.625 -1.624,-1.929c-0.199,-0.07 -0.332,-0.258 -0.332,-0.47l0,-6.367c0,-0.212 0.133,-0.4 0.332,-0.471c0.854,-0.304 1.476,-1.043 1.624,-1.929c0.04,-0.24 0.249,-0.417 0.493,-0.417l7.051,0c0.276,0 0.5,0.224 0.5,0.5s-0.224,0.5 -0.5,0.5l-6.654,0c-0.282,0.941 -0.952,1.725 -1.846,2.149l0,5.701c0.893,0.425 1.564,1.209 1.846,2.15l6.654,0c0.276,0 0.5,0.224 0.5,0.5s-0.224,0.5 -0.5,0.5z"/>
  <path id="svg_37" fill="#50a7a0" d="m27.567909,24.592251l7.051,0c0.244,0 0.452,-0.177 0.493,-0.417c0.148,-0.886 0.771,-1.625 1.624,-1.929c0.199,-0.07 0.332,-0.258 0.332,-0.47l0,-6.367c0,-0.212 -0.133,-0.4 -0.332,-0.471c-0.854,-0.304 -1.476,-1.043 -1.624,-1.929c-0.04,-0.24 -0.249,-0.417 -0.493,-0.417l-7.051,0c-0.276,0 -0.5,0.224 -0.5,0.5s0.224,0.5 0.5,0.5l6.654,0c0.281,0.941 0.952,1.725 1.846,2.149l0,5.701c-0.893,0.425 -1.564,1.208 -1.846,2.149l-6.654,0c-0.276,0 -0.5,0.224 -0.5,0.5s0.224,0.501 0.5,0.501z"/>
 </g>
</svg>